<?xml version="1.0" encoding="UTF-8" standalone="no"?>
<!DOCTYPE svg PUBLIC "-//W3C//DTD SVG 1.1//EN" "http://www.w3.org/Graphics/SVG/1.1/DTD/svg11.dtd">
<svg xmlns="http://www.w3.org/2000/svg" xmlns:xlink="http://www.w3.org/1999/xlink" version="1.1" width="1666.6666pt" height="729.1666pt" viewBox="0 0 1666.6666 729.1666">
<g enable-background="new">
<clipPath id="cp0">
<path transform="matrix(.6666666,0,0,.6666666,0,0)" d="M 0 0 L 2500 0 L 2500 1093.75 L 0 1093.75 Z " fill-rule="evenodd"/>
</clipPath>
<g clip-path="url(#cp0)">
<path transform="matrix(2.0833333,0,0,2.0833333,0,0)" d="M 0 0 L 800 0 L 800 350 L 0 350 Z " fill="#ffffff"/>
</g>
<clipPath id="cp1">
<path transform="matrix(.6666666,0,0,.6666666,0,0)" d="M 0 0 L 2500 0 L 2500 1093.75 L 0 1093.75 Z " fill-rule="evenodd"/>
</clipPath>
<g clip-path="url(#cp1)">
<path transform="matrix(2.0833333,0,0,2.0833333,0,0)" d="M 0 0 L 800 0 L 800 350 L 0 350 Z " fill="#ffffff"/>
</g>
<clipPath id="cp2">
<path transform="matrix(.6666666,0,0,.6666666,0,0)" d="M 0 0 L 2500 0 L 2500 1093.75 L 0 1093.75 Z " fill-rule="evenodd"/>
</clipPath>
<g clip-path="url(#cp2)">
<g id="Layer-1" data-name="P">
<g id="Layer-2" data-name="P">
</g>
<symbol id="font_3_31">
<path d="M .45000003 0 L .34700004 0 C .319 0 .298 .008000001 .284 .024000004 C .27 .039333334 .263 .058666666 .263 .082 L .263 .153 C .223 .157 .18666668 .16766668 .15400002 .185 C .12133334 .20233333 .09366667 .22600001 .07100001 .256 C .048333337 .28666667 .03066667 .32333336 .018000003 .366 C .006000001 .40933336 0 .45833335 0 .513 C 0 .57166668 .0070000009 .62333336 .021000002 .668 C .035 .7126667 .05466667 .7503333 .08000001 .781 C .106000009 .81166669 .13700001 .8346667 .17300001 .85 C .20966669 .866 .25066669 .8740001 .296 .8740001 C .34066669 .8740001 .38133336 .866 .418 .85 C .4546667 .8346667 .48566667 .81166669 .511 .781 C .537 .7503333 .557 .7126667 .571 .668 C .585 .62333336 .592 .57166668 .592 .513 C .592 .40566669 .5696667 .3216667 .525 .261 C .48033334 .20100002 .41966669 .16566667 .34300003 .155 L .34300003 .07 L .45000003 .07 L .45000003 0 M .296 .227 C .326 .227 .3536667 .23233335 .379 .243 C .40433336 .25366668 .42600004 .26900003 .44400005 .289 C .46266673 .30900003 .47700004 .333 .48700003 .361 C .49699999 .38900004 .502 .42033337 .502 .455 L .502 .571 C .502 .6056667 .49699999 .637 .48700003 .6650001 C .47700004 .693 .46266673 .717 .44400005 .737 C .42600004 .757 .40433336 .7723334 .379 .783 C .3536667 .79366669 .326 .799 .296 .799 C .266 .799 .23833335 .79366669 .21300003 .783 C .1876667 .7723334 .16566669 .757 .14700002 .737 C .12900001 .717 .11500001 .693 .105000007 .6650001 C .095000009 .637 .09 .6056667 .09 .571 L .09 .455 C .09 .42033337 .095000009 .38900004 .105000007 .361 C .11500001 .333 .12900001 .30900003 .14700002 .289 C .16566669 .26900003 .1876667 .25366668 .21300003 .243 C .23833335 .23233335 .266 .227 .296 .227 Z "/>
</symbol>
<use xlink:href="#font_3_31" transform="matrix(244.4375,0,0,-244.4375,119.59989,420.42173)"/>
</g>
<g id="Layer-1" data-name="P">
<g id="Layer-2" data-name="P">
</g>
<symbol id="font_4_f">
<path d="M .022999995 .67300006 C .01433333 .67300006 .00833333 .675 .004999995 .679 C .0016666651 .6836667 0 .68866667 0 .694 L 0 .70100006 C 0 .7063334 .0016666651 .711 .004999995 .71500006 C .00833333 .7196667 .01433333 .72200009 .022999995 .72200009 C .031666664 .72200009 .037666665 .7196667 .040999995 .71500006 C .044333336 .711 .046000005 .7063334 .046000005 .70100006 L .046000005 .694 C .046000005 .68866667 .044333336 .6836667 .040999995 .679 C .037666665 .675 .031666664 .67300006 .022999995 .67300006 M .012999997 .50600007 L .033999996 .50600007 L .033999996 0 L .012999997 0 L .012999997 .50600007 Z "/>
</symbol>
<symbol id="font_4_19">
<path d="M .187 0 C .14633335 0 .110666688 .0070000009 .080000009 .021000002 C .05 .03566667 .023333336 .059666668 0 .093 L .018 .105000007 C .040666667 .07366667 .065 .051333339 .091 .038000004 C .11766667 .025333336 .14966668 .019000002 .187 .019000002 C .23500002 .019000002 .27133338 .029000001 .29600004 .049000004 C .3206667 .069000009 .33300004 .09800001 .33300004 .136 C .33300004 .17400001 .32200004 .202 .3 .22 C .27866668 .23799999 .24700003 .25033335 .20500002 .257 L .16100002 .264 C .11633334 .2706667 .081 .284 .055 .30400003 C .029666665 .32466669 .016999998 .35700003 .016999998 .40100003 C .016999998 .42233337 .020999998 .441 .029 .45700003 C .037666669 .47300003 .049000008 .48633335 .063 .497 C .07766667 .5083334 .09466667 .5166667 .114 .5220001 C .13333334 .5273334 .15433334 .53000006 .17700002 .53000006 C .199 .53000006 .21833335 .52800008 .23500002 .52400007 C .25233335 .52000007 .26766668 .5143334 .28100003 .507 C .29433338 .50033339 .30600003 .4926667 .316 .48400004 C .32666669 .47533337 .336 .46633337 .344 .45700003 L .328 .44300003 C .32000003 .45166669 .31133334 .46000005 .30200003 .46800003 C .29333339 .4766667 .28300003 .484 .27100004 .49 C .25966669 .4966667 .24633335 .5016667 .231 .50500008 C .21566667 .50900009 .198 .51100006 .178 .51100006 C .13599999 .51100006 .102 .5016667 .076 .483 C .05066667 .46500004 .038000004 .43800006 .038000004 .402 C .038000004 .364 .048333337 .33666668 .069000009 .32000003 C .089666668 .30333338 .12166667 .29133336 .16500002 .284 L .20900002 .277 C .23100002 .27366669 .25100003 .26866666 .26900003 .262 C .28700004 .25533334 .30200003 .24633335 .314 .235 C .32666669 .22433335 .33633337 .21066667 .34300003 .194 C .35033337 .17800002 .354 .159 .35400004 .137 C .354 .092999998 .33900003 .059000005 .30900003 .035000005 C .2796667 .011666668 .23900001 0 .187 0 Z "/>
</symbol>
<symbol id="font_4_11">
<path d="M 0 .74 L .020999998 .74 L .020999998 .22000002 L .024000004 .22000002 L .104 .29900003 L .311 .50600007 L .33900006 .50600007 L .12400001 .29200004 L .366 0 L .34000004 0 L .10900001 .277 L .020999998 .19000001 L .020999998 0 L 0 0 L 0 .74 Z "/>
</symbol>
<symbol id="font_4_1a">
<path d="M .12400001 0 C .10466667 0 .095 .009666667 .095 .029000001 L .095 .48700003 L 0 .48700003 L 0 .50600007 L .072000008 .50600007 C .08133334 .50600007 .087333347 .5076667 .09 .51100006 C .093333337 .51500007 .095 .5216667 .095 .531 L .095 .65000006 L .11600001 .65000006 L .11600001 .50600007 L .23700002 .50600007 L .23700002 .48700003 L .11600001 .48700003 L .11600001 .019000002 L .229 .019000002 L .229 0 L .12400001 0 Z "/>
</symbol>
<use xlink:href="#font_4_f" transform="matrix(77.770839,0,0,-77.770839,296.0019,391.66667)"/>
<use xlink:href="#font_4_19" transform="matrix(77.770839,0,0,-77.770839,310.62196,392.5999)"/>
<use xlink:href="#font_4_11" transform="matrix(77.770839,0,0,-77.770839,350.90556,391.66667)"/>
<use xlink:href="#font_4_f" transform="matrix(77.770839,0,0,-77.770839,388.00044,391.66667)"/>
<use xlink:href="#font_4_1a" transform="matrix(77.770839,0,0,-77.770839,401.14286,391.66667)"/>
</g>
<g id="Layer-1" data-name="H1">
<g id="Layer-2" data-name="P">
</g>
<symbol id="font_3_37">
<path d="M .17000002 0 L 0 .698 L .089 .698 L .16400002 .36200003 L .22200002 .101 L .22400002 .101 L .289 .36200003 L .377 .698 L .47300003 .698 L .558 .36200003 L .623 .102000009 L .62600007 .102000009 L .68600007 .36200003 L .76500007 .698 L .8510001 .698 L .67200008 0 L .57900008 0 L .488 .34800003 L .42400003 .60400006 L .42200003 .60400006 L .356 .34800003 L .263 0 L .17000002 0 Z "/>
</symbol>
<symbol id="font_3_29">
<path d="M 0 0 L 0 .07 L .098000008 .07 L .098000008 .628 L 0 .628 L 0 .698 L .28 .698 L .28 .628 L .18200001 .628 L .18200001 .07 L .28 .07 L .28 0 L 0 0 Z "/>
</symbol>
<use xlink:href="#font_3_37" transform="matrix(244.4375,0,0,-244.4375,1072.6206,390.13948)"/>
<use xlink:href="#font_3_29" transform="matrix(244.4375,0,0,-244.4375,1300.1885,390.13948)"/>
</g>
<g id="Layer-1" data-name="P">
<g id="Layer-2" data-name="P">
</g>
<symbol id="font_4_14">
<path d="M 0 0 L 0 .50600007 L .020999998 .50600007 L .020999998 .43 L .024000004 .43 C .03266667 .45266668 .04966667 .47300003 .075 .49100004 C .10100001 .509 .13666667 .518 .182 .518 C .23866667 .518 .28166668 .50166669 .311 .469 C .341 .43633334 .35600005 .38833336 .356 .32500003 L .356 0 L .33500005 0 L .33500005 .321 C .33500005 .38300003 .3216667 .42800007 .29500003 .45600004 C .26833336 .48466669 .23 .49899999 .18000002 .499 C .15933335 .49899999 .13933334 .49600003 .120000008 .49 C .10066667 .48466669 .083666678 .47633339 .069000009 .46500004 C .05433334 .4536667 .042666675 .43933336 .03400001 .42200003 C .025333336 .4046667 .020999998 .38466669 .020999998 .36200003 L .020999998 0 L 0 0 Z "/>
</symbol>
<symbol id="font_4_8">
<path d="M .379 .09 L .37600003 .09 C .3706667 .07866667 .36333338 .06766667 .35400004 .057000005 C .3446667 .04633333 .333 .036666667 .319 .028 C .3056667 .020000002 .29000003 .013333333 .272 .007999999 C .254 .0026666665 .23400001 0 .21200001 0 C .14533334 0 .093333337 .022 .056 .066 C .018666668 .10999999 0 .17633336 0 .26500003 C 0 .35366667 .018666668 .42 .056 .46400003 C .093333337 .508 .14533334 .53000006 .21200001 .53000006 C .23400001 .53000006 .254 .5273334 .272 .5220001 C .29000003 .5166667 .3056667 .50966677 .319 .50100007 C .333 .49300004 .3446667 .48333336 .35400004 .472 C .36333338 .46133337 .3706667 .4506667 .37600003 .44000004 L .379 .44000004 L .379 .75200006 L .4 .75200006 L .4 .012 L .379 .012 L .379 .09 M .21200001 .019000002 C .23400001 .019000002 .255 .022333334 .275 .029000001 C .295 .035666668 .31266669 .045 .328 .057000005 C .344 .069000009 .35633336 .083333339 .365 .10000001 C .37433336 .116666678 .37900005 .135 .379 .155 L .379 .375 C .37900005 .39499999 .37433336 .41333334 .365 .43 C .35633336 .4466667 .344 .461 .328 .47300003 C .31266669 .485 .295 .49433337 .275 .50100007 C .255 .5076667 .23400001 .51100006 .21200001 .51100006 C .15133335 .51100006 .10466667 .49100004 .072 .451 C .039333334 .41166667 .023000002 .3576667 .023000002 .289 L .023000002 .24100001 C .023000002 .17233335 .039333334 .118 .072 .078 C .10466667 .03866667 .15133335 .019000002 .21200001 .019000002 Z "/>
</symbol>
<symbol id="font_4_15">
<path d="M .21000001 0 C .14333333 0 .09166667 .022 .055 .066 C .018333333 .11066667 0 .177 0 .26500003 C 0 .35300002 .018333333 .41900004 .055 .46300004 C .09166667 .5076667 .14333333 .53000006 .21000001 .53000006 C .27666668 .53000006 .32833336 .5076667 .365 .46300004 C .40166668 .41900004 .42 .35300002 .42000003 .26500003 C .42 .177 .40166668 .11066667 .365 .066 C .32833336 .022 .27666668 0 .21000001 0 M .21000001 .019000002 C .2706667 .019000002 .31700004 .03866667 .349 .078 C .381 .118 .39699999 .17233335 .397 .24100001 L .397 .289 C .39699999 .3576667 .381 .41166667 .349 .451 C .31700004 .49100004 .2706667 .51100006 .21000001 .51100006 C .14933335 .51100006 .10300001 .49100004 .07100001 .451 C .039000006 .41166667 .023000002 .3576667 .023000002 .289 L .023000002 .24100001 C .023000002 .17233335 .039000006 .118 .07100001 .078 C .10300001 .03866667 .14933335 .019000002 .21000001 .019000002 Z "/>
</symbol>
<symbol id="font_4_1d">
<path d="M 0 .50600007 L .022000004 .50600007 L .16600001 .027 L .16900002 .027 L .31700004 .50600007 L .33900003 .50600007 L .48700003 .027 L .49000005 .027 L .634 .50600007 L .65500006 .50600007 L .501 0 L .47500006 0 L .32900004 .47200004 L .32600004 .47200004 L .18 0 L .15400002 0 L 0 .50600007 Z "/>
</symbol>
<use xlink:href="#font_4_14" transform="matrix(77.770839,0,0,-77.770839,1380.3989,374.02836)"/>
<use xlink:href="#font_4_8" transform="matrix(77.770839,0,0,-77.770839,1420.1378,374.9616)"/>
<use xlink:href="#font_4_15" transform="matrix(77.770839,0,0,-77.770839,1464.0763,374.9616)"/>
<use xlink:href="#font_4_1d" transform="matrix(77.770839,0,0,-77.770839,1504.1262,374.02836)"/>
<use xlink:href="#font_4_19" transform="matrix(77.770839,0,0,-77.770839,1561.5963,374.9616)"/>
</g>
<g id="Layer-1" data-name="P">
<g id="Layer-2" data-name="P">
</g>
<use xlink:href="#font_3_29" transform="matrix(244.4375,0,0,-244.4375,575.03909,390.13948)"/>
</g>
<g id="Layer-1" data-name="P">
<g id="Layer-2" data-name="P">
</g>
<symbol id="font_4_4">
<path d="M .361 .012 C .3416667 .011999999 .33200003 .021666667 .33200003 .041 L .33200003 .08900001 L .329 .08900001 C .31633333 .065000008 .29700003 .044 .27100004 .026 C .24566667 .008666667 .20966667 0 .163 0 C .111 0 .07066667 .011999999 .042000005 .036 C .014000001 .06066667 0 .09600001 0 .142 C 0 .16266668 .0029999987 .182 .008999996 .2 C .015666666 .218 .026333334 .23333334 .041 .246 C .055666668 .25866667 .075 .26866666 .09900001 .276 C .123666677 .28333334 .154 .287 .19000001 .287 L .33200003 .287 L .33200003 .361 C .33200003 .41300003 .31966669 .451 .29500003 .47500003 C .271 .49900005 .23533334 .51100006 .18800001 .51100006 C .14999999 .51100006 .11833334 .5033334 .09300001 .488 C .068333338 .47333337 .049 .44933335 .034999998 .416 L .016999998 .42400003 C .031000002 .4566667 .051000004 .48233334 .07700001 .50100007 C .10366666 .52033337 .14066667 .53000006 .18800001 .53000006 C .24333336 .53000006 .2846667 .51566669 .31200005 .48700003 C .3393334 .45900003 .35300005 .418 .35300005 .36400003 L .35300005 .031000002 L .43800003 .031000002 L .43800003 .012 L .361 .012 M .163 .019000002 C .18566668 .019000002 .20700002 .022 .22700002 .028 C .24766667 .033999999 .2656667 .04266667 .28100003 .054000006 C .29633335 .06600001 .30866669 .08066667 .31800003 .098000008 C .32733337 .116 .33200003 .13666667 .33200003 .16 L .33200003 .269 L .191 .269 C .13166666 .269 .08866667 .25866667 .062 .238 C .036000004 .21733333 .023000002 .19033332 .023000002 .157 L .023000002 .127 C .023000002 .09166667 .036000004 .064666669 .062 .046000005 C .088 .028000003 .12166667 .019000002 .163 .019000002 Z "/>
</symbol>
<symbol id="font_4_12">
<path d="M .029000007 0 C .009666674 0 .000000007450581 .009666667 .000000007450581 .029000001 L .000000007450581 .74 L .021000006 .74 L .021000006 .019000002 L .10600001 .019000002 L .10600001 0 L .029000007 0 Z "/>
</symbol>
<symbol id="font_4_9">
<path d="M .21200001 0 C .14533334 0 .093333337 .022 .056 .066 C .018666668 .11066667 0 .177 0 .26500003 C 0 .35233335 .018333333 .41833333 .055 .46300004 C .09166667 .5076667 .14266667 .53000006 .208 .53000006 C .23866667 .53000006 .26633335 .524 .291 .512 C .31633336 .5006667 .33800004 .484 .356 .462 C .37399999 .44000004 .388 .41333334 .39800004 .382 C .40800003 .35133336 .41300003 .31666667 .41300003 .278 L .41300003 .268 L .023000002 .268 L .023000002 .24100001 C .023000002 .17233335 .039333334 .118 .072 .078 C .10466667 .03866667 .15133335 .019000002 .21200001 .019000002 C .29733334 .019000002 .35566668 .060333339 .38700003 .143 L .40500004 .136 C .3896667 .094000007 .36566673 .06066667 .333 .036 C .30100004 .011999999 .2606667 0 .21200001 0 M .208 .51100006 C .14866667 .51100006 .10300001 .49100004 .07100001 .451 C .039000006 .41166667 .023000002 .3576667 .023000002 .289 L .023000002 .287 L .39000003 .287 L .39000003 .291 C .39000003 .32433335 .3856667 .35433338 .377 .381 C .36833335 .40833334 .35600005 .4316667 .34 .451 C .324 .47033335 .30466668 .485 .282 .495 C .26000003 .5056667 .23533334 .51100006 .208 .51100006 Z "/>
</symbol>
<symbol id="font_4_18">
<path d="M 0 0 L 0 .50600007 L .020999998 .50600007 L .020999998 .41900004 L .024000004 .41900004 C .030000007 .431 .037000006 .442 .045 .45200003 C .053666668 .46266667 .064 .47200004 .076000008 .48000003 C .08866667 .488 .10366666 .49433337 .12100001 .499 C .13833334 .5036667 .15866667 .50600007 .182 .50600007 L .223 .50600007 L .223 .48700003 L .179 .48700003 C .15833335 .48700003 .13833334 .484 .119 .47800002 C .10033333 .4726667 .083666678 .4643334 .069000009 .453 C .05433334 .4416667 .042666675 .42733336 .03400001 .41000004 C .025333336 .39266668 .020999998 .37233333 .020999998 .349 L .020999998 0 L 0 0 Z "/>
</symbol>
<symbol id="font_4_3">
<path d="M 0 0 Z "/>
</symbol>
<symbol id="font_4_a">
<path d="M .093 .48700003 L 0 .48700003 L 0 .50600007 L .093 .50600007 L .093 .711 C .093 .7303333 .102666679 .74 .12200001 .74 L .23000002 .74 L .23000002 .721 L .11400001 .721 L .11400001 .50600007 L .23000002 .50600007 L .23000002 .48700003 L .11400001 .48700003 L .11400001 0 L .093 0 L .093 .48700003 Z "/>
</symbol>
<use xlink:href="#font_4_f" transform="matrix(77.770839,0,0,-77.770839,651.65359,391.66667)"/>
<use xlink:href="#font_4_14" transform="matrix(77.770839,0,0,-77.770839,670.62887,391.66667)"/>
<use xlink:href="#font_4_19" transform="matrix(77.770839,0,0,-77.770839,709.5122,392.5999)"/>
<use xlink:href="#font_4_1a" transform="matrix(77.770839,0,0,-77.770839,743.96298,391.66667)"/>
<use xlink:href="#font_4_4" transform="matrix(77.770839,0,0,-77.770839,770.4817,392.5999)"/>
<use xlink:href="#font_4_12" transform="matrix(77.770839,0,0,-77.770839,814.2648,391.66667)"/>
<use xlink:href="#font_4_12" transform="matrix(77.770839,0,0,-77.770839,833.78439,391.66667)"/>
<use xlink:href="#font_4_9" transform="matrix(77.770839,0,0,-77.770839,849.8042,392.5999)"/>
<use xlink:href="#font_4_18" transform="matrix(77.770839,0,0,-77.770839,894.7538,391.66667)"/>
<use xlink:href="#font_4_3" transform="matrix(77.770839,0,0,-77.770839,913.10647,391.66667)"/>
<use xlink:href="#font_4_a" transform="matrix(77.770839,0,0,-77.770839,933.7926,391.66667)"/>
<use xlink:href="#font_4_15" transform="matrix(77.770839,0,0,-77.770839,958.28939,392.5999)"/>
<use xlink:href="#font_4_18" transform="matrix(77.770839,0,0,-77.770839,1003.7834,391.66667)"/>
</g>
</g>
</g>
</svg>
