<?xml version="1.0" encoding="UTF-8"?>
<svg version="1.1" xmlns="http://www.w3.org/2000/svg" width="750" height="280">
<path d="M0 0 C247.5 0 495 0 750 0 C750 92.4 750 184.8 750 280 C502.5 280 255 280 0 280 C0 187.6 0 95.2 0 0 Z " fill="#FEFEFE" transform="translate(0,0)"/>
<path d="M0 0 C3.63 0 7.26 0 11 0 C12.12180753 5.15060669 13.24174266 10.3016107 14.359375 15.453125 C15.41316227 20.30797868 16.47296709 25.16146328 17.5369873 30.01408386 C18.26281691 33.32749273 18.98562254 36.64155769 19.70800781 39.95571899 C20.06742346 41.60148245 20.42808727 43.24697385 20.79003906 44.8921814 C21.30604924 47.2386082 21.81752791 49.58598391 22.328125 51.93359375 C22.48210754 52.62874084 22.63609009 53.32388794 22.79473877 54.0401001 C23.79726509 58.67778265 24.46652695 63.28469095 25 68 C25.66 68 26.32 68 27 68 C27.09667969 66.95972656 27.19335938 65.91945313 27.29296875 64.84765625 C28.07804867 58.59039057 29.74994944 52.53697258 31.3125 46.4375 C31.63009277 45.18477295 31.94768555 43.9320459 32.27490234 42.64135742 C33.17712529 39.09262921 34.08666653 35.54588287 35 32 C35.21092285 31.17854492 35.4218457 30.35708984 35.63916016 29.51074219 C38.19334284 19.60544047 41.07316087 9.80011298 44 0 C47.96 0 51.92 0 56 0 C56.40839111 1.66909424 56.81678223 3.33818848 57.23754883 5.05786133 C58.59740135 10.61409914 59.95859869 16.17000658 61.32068348 21.72569752 C62.14529112 25.08932653 62.9693827 28.45308011 63.79223633 31.81713867 C64.74140255 35.69749574 65.6929185 39.57727344 66.64453125 43.45703125 C66.9352803 44.64706253 67.22602936 45.83709381 67.52558899 47.06318665 C69.24700088 54.07235592 71.06112663 61.0477674 73 68 C78.56810504 45.38349414 83.96776311 22.74217071 89 0 C92.3 0 95.6 0 99 0 C98.45158552 6.11693073 97.44016662 11.68653867 95.6875 17.5625 C93.86133712 23.79259266 92.21492711 30.0520089 90.65330505 36.35401917 C89.26839966 41.94058872 87.85225415 47.51865534 86.421875 53.09375 C86.0938665 54.37239174 86.0938665 54.37239174 85.75923157 55.67686462 C85.08986343 58.28467305 84.41994641 60.89234008 83.75 63.5 C83.28641266 65.30597786 82.82287074 67.11196738 82.359375 68.91796875 C81.2401049 73.27877991 80.12022744 77.63943467 79 82 C75.37 82 71.74 82 68 82 C65.3261456 73.53265095 62.88352909 65.04061427 60.6875 56.4375 C60.39480225 55.30014404 60.10210449 54.16278809 59.80053711 52.9909668 C56.47003442 40.01006899 53.22760891 27.0068043 50 14 C48.19378397 17.26546141 47.25095955 20.47068318 46.3359375 24.08203125 C45.86522827 25.92438354 45.86522827 25.92438354 45.38500977 27.80395508 C45.04833305 29.14013501 44.71166329 30.47631669 44.375 31.8125 C44.02516192 33.18591942 43.6748125 34.55920869 43.32397461 35.93237305 C42.58967107 38.8085459 41.85761393 41.68527565 41.12744141 44.5625 C39.4604772 51.12824236 37.77924061 57.69030226 36.09185791 64.25082397 C35.56807534 66.29078586 35.04734958 68.33151142 34.52685547 70.37231445 C34.20990723 71.6068335 33.89295898 72.84135254 33.56640625 74.11328125 C33.14790405 75.74970581 33.14790405 75.74970581 32.72094727 77.41918945 C32 80 32 80 31 82 C27.37 82 23.74 82 20 82 C15.76643205 68.04846926 12.26560205 53.98090043 8.98046875 39.78344727 C8.64332811 38.32696277 8.30608915 36.87050103 7.96875 35.4140625 C7.80358887 34.70078293 7.63842773 33.98750336 7.46826172 33.25260925 C5.66422043 25.49728682 3.71843907 17.77818229 1.7265625 10.0690918 C1.49710937 9.17101807 1.26765625 8.27294434 1.03125 7.34765625 C0.83080078 6.57429932 0.63035156 5.80094238 0.42382812 5.00415039 C0 3 0 3 0 0 Z " fill="#080808" transform="translate(453,89)"/>
<path d="M0 0 C0.65613281 0.23332031 1.31226563 0.46664062 1.98828125 0.70703125 C10.3406933 4.25883365 15.4082873 11.02366027 18.9375 19.1875 C23.94213082 31.86024313 23.92021461 48.48480737 19.26171875 61.234375 C15.38648357 69.72869855 9.98158987 76.84241125 1.375 80.875 C-2 82 -2 82 -7 82 C-7 85.63 -7 89.26 -7 93 C-3.04 93 0.92 93 5 93 C5 95.64 5 98.28 5 101 C2.58303128 101.05411124 0.16728213 101.09372278 -2.25 101.125 C-2.93191406 101.14175781 -3.61382812 101.15851563 -4.31640625 101.17578125 C-8.04111154 101.21194344 -10.90398926 101.18804605 -14 99 C-17.59400522 93.86570684 -17.3206073 89.00841833 -17 83 C-17.60585937 82.93683594 -18.21171875 82.87367188 -18.8359375 82.80859375 C-27.10427841 81.60014392 -33.18570329 78.19900046 -38.8203125 71.99609375 C-48.42170102 58.89671192 -48.51571923 42.57448625 -47 27 C-46.14176827 22.25885507 -44.42736522 18.15935791 -42 14 C-41.56558594 13.22914062 -41.13117187 12.45828125 -40.68359375 11.6640625 C-36.3367882 5.00143746 -29.80259812 1.52103925 -22.5625 -1.375 C-14.92132037 -2.71555783 -7.34609261 -2.62035881 0 0 Z M-32.45703125 16.609375 C-37.40525908 24.27599634 -37.49117319 31.47500872 -37.4375 40.375 C-37.45748047 41.54289062 -37.47746094 42.71078125 -37.49804688 43.9140625 C-37.4931521 52.64633386 -36.29857567 60.00698734 -30.625 66.875 C-23.7632366 72.42976085 -18.9779923 74.42866094 -10.2109375 74.34375 C-3.91421622 73.66964845 1.6343732 70.86202763 5.9375 66.1875 C11.43109581 57.69739739 11.51937767 50.03667647 11.5 40.125 C11.54253906 38.15853516 11.54253906 38.15853516 11.5859375 36.15234375 C11.60363356 27.33085765 10.49636569 20.25789213 4.62768555 13.39526367 C-1.33781697 7.87472151 -8.42502929 6.3872593 -16.328125 6.66015625 C-23.50088409 7.57248087 -27.78643318 11.32860379 -32.45703125 16.609375 Z " fill="#090909" transform="translate(90,79)"/>
<path d="M0 0 C10.89 0 21.78 0 33 0 C33 2.64 33 5.28 33 8 C29.04 8 25.08 8 21 8 C21 29.78 21 51.56 21 74 C24.96 74 28.92 74 33 74 C33 76.64 33 79.28 33 82 C22.11 82 11.22 82 0 82 C0 79.36 0 76.72 0 74 C3.63 74 7.26 74 11 74 C11 52.55 11 31.1 11 9 C7.37 9 3.74 9 0 9 C0 6.03 0 3.06 0 0 Z " fill="#090909" transform="translate(219,89)"/>
<path d="M0 0 C10.89 0 21.78 0 33 0 C33 2.64 33 5.28 33 8 C29.04 8 25.08 8 21 8 C21 29.78 21 51.56 21 74 C24.96 74 28.92 74 33 74 C33 76.64 33 79.28 33 82 C22.11 82 11.22 82 0 82 C0 79.36 0 76.72 0 74 C3.96 74 7.92 74 12 74 C12 52.22 12 30.44 12 8 C8.04 8 4.08 8 0 8 C0 5.36 0 2.72 0 0 Z " fill="#020202" transform="translate(562,89)"/>
<path d="M0 0 C0.33 0 0.66 0 1 0 C1 9.24 1 18.48 1 28 C-8 29 -8 29 -12 27 C-14.69377978 22.9421725 -14.65296544 18.70469972 -14 14 C-12.5 10.9375 -12.5 10.9375 -10 9 C-7.14924573 8.52948716 -4.92751388 8.71204781 -2 9 C-1.67 9.33 -1.34 9.66 -1 10 C-0.67 6.7 -0.34 3.4 0 0 Z " fill="#CFCFCF" transform="translate(639,135)"/>
<path d="M0 0 C1.93084565 1.58605179 2.88290172 2.76580344 4 5 C4.203125 7.2421875 4.203125 7.2421875 4.25 9.875 C4.27578125 10.73867187 4.3015625 11.60234375 4.328125 12.4921875 C3.93204185 15.51939441 3.11662903 16.82484667 1 19 C-2.375 20 -2.375 20 -6 20 C-8.80189446 18.23358828 -10.51524911 16.96950178 -12 14 C-12.55112923 9.40123316 -12.61753151 6.02212113 -10.1875 2 C-6.71949138 -1.17075074 -4.36223132 -1.3086694 0 0 Z " fill="#E4E4E4" transform="translate(421,144)"/>
<path d="M0 0 C2.67431489 1.81163267 2.95920359 2.87761077 4 6 C4.2488724 10.47970315 4.25825374 14.04805595 2 18 C-0.57636208 20.02428449 -1.77529613 20.02292897 -5.0625 19.6875 C-8 19 -8 19 -11 18 C-12.05943373 15.20750415 -12.16210038 12.46667507 -12.1875 9.5 C-12.20167969 8.7471875 -12.21585938 7.994375 -12.23046875 7.21875 C-11.97000524 4.71123689 -11.33185516 3.13096826 -10 1 C-6.82178465 -0.58910767 -3.46060271 -0.40420974 0 0 Z " fill="#DEDEDE" transform="translate(658,144)"/>
<path d="M0 0 C0.66 0 1.32 0 2 0 C4.61783599 4.55230115 4.79543348 8.86282543 4 14 C1.9375 17.1875 1.9375 17.1875 -1 19 C-4.62761169 19 -6.92005751 18.79195782 -9.875 16.625 C-12.43003523 12.93439356 -12.22811238 9.33413521 -12 5 C-11 2.5625 -11 2.5625 -10 1 C-9 3 -9 3 -10 7 C-6.04 7 -2.08 7 2 7 C1.34 4.69 0.68 2.38 0 0 Z " fill="#E7E7E7" transform="translate(369,145)"/>
<path d="M0 0 C0.66 0 1.32 0 2 0 C3.18681726 3.56045177 3.09689832 6.43808337 3.0625 10.1875 C3.05347656 11.45980469 3.04445313 12.73210937 3.03515625 14.04296875 C3.02355469 15.01878906 3.01195312 15.99460938 3 17 C3.99 17.33 4.98 17.66 6 18 C5.13375 17.979375 4.2675 17.95875 3.375 17.9375 C0.02061438 17.89950015 0.02061438 17.89950015 -3.125 18.625 C-6 19 -6 19 -8.3125 18.4375 C-10 17 -10 17 -10.9375 14.0625 C-11 11 -11 11 -9.6875 9.1875 C-6.0984864 6.66189784 -3.33847107 6.91965794 1 7 C0.67 4.69 0.34 2.38 0 0 Z " fill="#EDEDED" transform="translate(330,145)"/>
<path d="M0 0 C2.9375 0.875 2.9375 0.875 4.3125 2.6875 C4.9375 4.875 4.9375 4.875 4.9375 8.875 C0.9775 8.875 -2.9825 8.875 -7.0625 8.875 C-6.75 5.5 -6.75 5.5 -6.0625 1.875 C-3.0625 -0.125 -3.0625 -0.125 0 0 Z " fill="#E8E8E8" transform="translate(366.0625,143.125)"/>
<path d="M0 0 C0.66 0 1.32 0 2 0 C3.18681726 3.56045177 3.09689832 6.43808337 3.0625 10.1875 C3.05347656 11.45980469 3.04445313 12.73210937 3.03515625 14.04296875 C3.02355469 15.01878906 3.01195312 15.99460938 3 17 C3.99 17.33 4.98 17.66 6 18 C5.13375 17.979375 4.2675 17.95875 3.375 17.9375 C0.02061438 17.89950015 0.02061438 17.89950015 -3.125 18.625 C-6.25167369 19.032827 -7.40810674 18.69469944 -10 17 C-9.67 16.34 -9.34 15.68 -9 15 C-8.67 15.33 -8.34 15.66 -8 16 C-5.66702567 16.04092937 -3.33294775 16.04241723 -1 16 C-0.34 13.69 0.32 11.38 1 9 C-1.97 9 -4.94 9 -8 9 C-6 7 -6 7 -2.375 6.875 C-0.704375 6.936875 -0.704375 6.936875 1 7 C0.67 4.69 0.34 2.38 0 0 Z " fill="#959595" transform="translate(330,145)"/>
<path d="M0 0 C0.66 0 1.32 0 2 0 C4.05164237 3.46214649 4 4.59389235 4 9 C-0.62 9 -5.24 9 -10 9 C-9.67 11.31 -9.34 13.62 -9 16 C-11 15 -11 15 -12 12 C-12.23164058 7.75325612 -12.33214424 4.64397537 -10 1 C-9 3 -9 3 -10 7 C-6.04 7 -2.08 7 2 7 C1.34 4.69 0.68 2.38 0 0 Z " fill="#8F8F8F" transform="translate(369,145)"/>
<path d="M0 0 C0.66 0 1.32 0 2 0 C2 5.94 2 11.88 2 18 C2.66 18.33 3.32 18.66 4 19 C3.67 19.33 3.34 19.66 3 20 C2.76924918 21.34747084 2.58846937 22.70377565 2.4375 24.0625 C2.293125 25.361875 2.14875 26.66125 2 28 C1.34 28 0.68 28 0 28 C0 18.76 0 9.52 0 0 Z " fill="#999999" transform="translate(148,135)"/>
<path d="M0 0 C0 0.33 0 0.66 0 1 C-1.65 1.33 -3.3 1.66 -5 2 C-5 2.66 -5 3.32 -5 4 C-5.66 4 -6.32 4 -7 4 C-7.33 4.66 -7.66 5.32 -8 6 C-8.33 6.33 -8.66 6.66 -9 7 C-9.07205511 8.68608966 -9.08386068 10.37500659 -9.0625 12.0625 C-9.05347656 12.98160156 -9.04445313 13.90070313 -9.03515625 14.84765625 C-9.02355469 15.55792969 -9.01195312 16.26820313 -9 17 C-10.96026975 15.36730848 -11.9065055 14.44978435 -12.43359375 11.9140625 C-12.44054785 7.83895707 -12.34216197 5.56633705 -10.1875 2 C-6.64680062 -1.23721087 -4.44778359 -1.08189331 0 0 Z " fill="#A5A5A5" transform="translate(421,144)"/>
<path d="M0 0 C1.65 0 3.3 0 5 0 C3.68 0.33 2.36 0.66 1 1 C1 3.64 1 6.28 1 9 C2.32 9.33 3.64 9.66 5 10 C3.68 10 2.36 10 1 10 C1 15.94 1 21.88 1 28 C0.67 28 0.34 28 0 28 C0 22.06 0 16.12 0 10 C-0.99 9.67 -1.98 9.34 -3 9 C-2.01 9 -1.02 9 0 9 C0 6.03 0 3.06 0 0 Z " fill="#454545" transform="translate(401,135)"/>
<path d="M0 0 C2 1 2 1 3.0703125 3.94140625 C3.41835938 5.13636719 3.76640625 6.33132812 4.125 7.5625 C4.47820313 8.76003906 4.83140625 9.95757812 5.1953125 11.19140625 C5.46085938 12.11824219 5.72640625 13.04507813 6 14 C6.99 13.01 7.98 12.02 9 11 C8.67 13.31 8.34 15.62 8 18 C7.01 18.33 6.02 18.66 5 19 C3 13 1 7 -1 1 C-0.67 0.67 -0.34 0.34 0 0 Z " fill="#737373" transform="translate(677,144)"/>
<path d="M0 0 C-2.60097682 1.30048841 -5.13955062 1.56471422 -8 2 C-8.6814823 3.89179203 -8.6814823 3.89179203 -9 6 C-8.34 6.66 -7.68 7.32 -7 8 C-8.875 7.875 -8.875 7.875 -11 7 C-12.25 3.9375 -12.25 3.9375 -13 1 C-7.84596189 -1.68009982 -5.54675294 -2.57044649 0 0 Z " fill="#9E9E9E" transform="translate(302,145)"/>
<path d="M0 0 C0.33 0 0.66 0 1 0 C1 1.65 1 3.3 1 5 C2.32 5.33 3.64 5.66 5 6 C3.68 6 2.36 6 1 6 C1 11.61 1 17.22 1 23 C2.32 23.33 3.64 23.66 5 24 C3.35 24 1.7 24 0 24 C0 18.06 0 12.12 0 6 C-0.99 5.67 -1.98 5.34 -3 5 C-2.01 5 -1.02 5 0 5 C0 3.35 0 1.7 0 0 Z " fill="#404040" transform="translate(176,139)"/>
<path d="M0 0 C0.33 0 0.66 0 1 0 C1 1.65 1 3.3 1 5 C2.32 5.33 3.64 5.66 5 6 C3.68 6 2.36 6 1 6 C1 11.61 1 17.22 1 23 C2.32 23.33 3.64 23.66 5 24 C3.35 24 1.7 24 0 24 C0 18.06 0 12.12 0 6 C-0.99 5.67 -1.98 5.34 -3 5 C-2.01 5 -1.02 5 0 5 C0 3.35 0 1.7 0 0 Z " fill="#3F3F3F" transform="translate(310,139)"/>
<path d="M0 0 C2.01822917 0.06510417 4.03645833 0.13020833 6.0546875 0.1953125 C6.0546875 0.5253125 6.0546875 0.8553125 6.0546875 1.1953125 C3.7446875 1.5253125 1.4346875 1.8553125 -0.9453125 2.1953125 C-0.9453125 3.1853125 -0.9453125 4.1753125 -0.9453125 5.1953125 C-1.2753125 6.1853125 -1.6053125 7.1753125 -1.9453125 8.1953125 C0.3646875 8.5253125 2.6746875 8.8553125 5.0546875 9.1953125 C5.0546875 9.5253125 5.0546875 9.8553125 5.0546875 10.1953125 C2.4146875 9.8653125 -0.2253125 9.5353125 -2.9453125 9.1953125 C-3.5703125 5.8203125 -3.5703125 5.8203125 -3.9453125 2.1953125 C-1.9453125 0.1953125 -1.9453125 0.1953125 0 0 Z " fill="#898989" transform="translate(133.9453125,143.8046875)"/>
<path d="M0 0 C0.99 0.495 0.99 0.495 2 1 C4.00800456 0.71887936 6.01014051 0.38932033 8 0 C6.71034824 1.37562854 5.37310707 2.70766393 4 4 C3.34 4 2.68 4 2 4 C1.67 8.95 1.34 13.9 1 19 C0.67 19 0.34 19 0 19 C0 12.73 0 6.46 0 0 Z " fill="#616161" transform="translate(431,144)"/>
<path d="M0 0 C0.66 0 1.32 0 2 0 C2 1.32 2 2.64 2 4 C2.99 4.33 3.98 4.66 5 5 C4.13375 4.979375 3.2675 4.95875 2.375 4.9375 C-0.97938562 4.89950015 -0.97938562 4.89950015 -4.125 5.625 C-7.25167369 6.032827 -8.40810674 5.69469944 -11 4 C-10.67 3.34 -10.34 2.68 -10 2 C-9.67 2.33 -9.34 2.66 -9 3 C-5.54187831 3.33338596 -5.54187831 3.33338596 -2 3 C-1.34 2.01 -0.68 1.02 0 0 Z " fill="#838383" transform="translate(331,158)"/>
<path d="M0 0 C1.09658936 3.28976808 0.79953138 4.71303767 0 8 C-1.32 6.68 -2.64 5.36 -4 4 C-2.68 2.68 -1.36 1.36 0 0 Z " fill="#9B9B9B" transform="translate(156,148)"/>
<path d="M0 0 C0 0.33 0 0.66 0 1 C-2.31 1 -4.62 1 -7 1 C-7.33 1.99 -7.66 2.98 -8 4 C-8.99 4.33 -9.98 4.66 -11 5 C-10.625 3.0625 -10.625 3.0625 -10 1 C-6.78548731 -0.60725635 -3.56387464 -0.05748185 0 0 Z " fill="#909090" transform="translate(658,144)"/>
</svg>
